grf.mot																		
version=1																		
nRows=21
nColumns=31
inDegrees=yes																		
endheader																		
time	ground_force_vx	ground_force_vy	ground_force_vz	ground_force_px	ground_force_py	ground_force_pz	1_ground_force_vx	1_ground_force_vy	1_ground_force_vz	1_ground_force_px	1_ground_force_py	1_ground_force_pz	ground_torque_x	ground_torque_y	ground_torque_z	1_ground_torque_x	1_ground_torque_y	1_ground_torque_z	apo_force_vx	apo_force_vy	apo_force_vz	apo_force_px	apo_force_py	apo_force_pz	1_apo_force_vx	1_apo_force_vy	1_apo_force_vz	1_apo_force_px	1_apo_force_py	1_apo_force_pz	
2.47952000000000	0.00000000000000	0.00000000000000	0.00000000000000	0.00000000000000	0.00000000000000	0.00000000000000	74.59139999999999	739.40400000000000	53.55900000000000	-0.28004000000000	0.00000000000000	-0.10334200000000	0.00000000000000	0.00000000000000	0.00000000000000	0.00000000000000	4.00596000000000	0.00000000000000	-8.71530000000000	-7.63670000000000	0.00000000000000	0.00000000000000	-0.35000000000000	0.00000000000000	9.53520000000000	-0.82863000000000	0.00000000000000	0.00000000000000	-0.35000000000000	0.00000000000000	
2.48452000000000	0.00000000000000	0.00000000000000	0.00000000000000	0.00000000000000	0.00000000000000	0.00000000000000	83.05750000000001	776.57000000000005	55.99860000000000	-0.28896300000000	0.00000000000000	-0.10377300000000	0.00000000000000	0.00000000000000	0.00000000000000	0.00000000000000	3.78052000000000	0.00000000000000	-9.58110000000000	-8.42480000000000	0.00000000000000	0.00000000000000	-0.35000000000000	0.00000000000000	10.72600000000000	-1.09810000000000	0.00000000000000	0.00000000000000	-0.35000000000000	0.00000000000000	
2.48952000000000	0.00000000000000	0.00000000000000	0.00000000000000	0.00000000000000	0.00000000000000	0.00000000000000	91.92189999999999	812.35000000000002	58.08890000000000	-0.29868100000000	0.00000000000000	-0.10436700000000	0.00000000000000	0.00000000000000	0.00000000000000	0.00000000000000	3.46226000000000	0.00000000000000	-10.48700000000000	-9.25290000000000	0.00000000000000	0.00000000000000	-0.35000000000000	0.00000000000000	12.03400000000000	-1.41340000000000	0.00000000000000	0.00000000000000	-0.35000000000000	0.00000000000000	
2.49452000000000	0.00000000000000	0.00000000000000	0.00000000000000	0.00000000000000	0.00000000000000	0.00000000000000	101.04100000000000	846.12599999999998	59.77740000000000	-0.30914900000000	0.00000000000000	-0.10510700000000	0.00000000000000	0.00000000000000	0.00000000000000	0.00000000000000	3.06580000000000	0.00000000000000	-11.43200000000000	-10.12200000000000	0.00000000000000	0.00000000000000	-0.35000000000000	0.00000000000000	13.46700000000000	-1.77840000000000	0.00000000000000	0.00000000000000	-0.35000000000000	0.00000000000000	
2.49952000000000	0.00000000000000	0.00000000000000	0.00000000000000	0.00000000000000	0.00000000000000	0.00000000000000	110.25900000000000	877.30100000000004	61.01840000000000	-0.32029200000000	0.00000000000000	-0.10597100000000	0.00000000000000	0.00000000000000	0.00000000000000	0.00000000000000	2.60672000000000	0.00000000000000	-12.41300000000000	-11.02800000000000	0.00000000000000	0.00000000000000	-0.35000000000000	0.00000000000000	15.02400000000000	-2.19520000000000	0.00000000000000	0.00000000000000	-0.35000000000000	0.00000000000000	
2.50452000000000	0.00000000000000	0.00000000000000	0.00000000000000	0.00000000000000	0.00000000000000	0.00000000000000	119.41400000000000	905.30200000000002	61.77500000000000	-0.33200600000000	0.00000000000000	-0.10693000000000	0.00000000000000	0.00000000000000	0.00000000000000	0.00000000000000	2.10108000000000	0.00000000000000	-13.41900000000000	-11.96400000000000	0.00000000000000	0.00000000000000	-0.35000000000000	0.00000000000000	16.69200000000000	-2.66340000000000	0.00000000000000	0.00000000000000	-0.35000000000000	0.00000000000000	
2.50952000000000	0.00000000000000	0.00000000000000	0.00000000000000	0.00000000000000	0.00000000000000	0.00000000000000	128.34000000000000	929.59699999999998	62.01900000000000	-0.34415500000000	0.00000000000000	-0.10795100000000	0.00000000000000	0.00000000000000	0.00000000000000	0.00000000000000	1.56494000000000	0.00000000000000	-14.43600000000000	-12.91800000000000	0.00000000000000	0.00000000000000	-0.35000000000000	0.00000000000000	18.44800000000000	-3.17910000000000	0.00000000000000	0.00000000000000	-0.35000000000000	0.00000000000000	
2.51452000000000	0.00000000000000	0.00000000000000	0.00000000000000	0.00000000000000	0.00000000000000	0.00000000000000	136.86900000000000	949.70000000000005	61.73210000000000	-0.35657800000000	0.00000000000000	-0.10899700000000	0.00000000000000	0.00000000000000	0.00000000000000	0.00000000000000	1.01392000000000	0.00000000000000	-15.38400000000000	-13.81900000000000	0.00000000000000	0.00000000000000	-0.35000000000000	0.00000000000000	20.21200000000000	-3.72540000000000	0.00000000000000	0.00000000000000	-0.35000000000000	0.00000000000000	
2.51952000000000	-3.73302000000000	48.87670000000000	14.66860000000000	-0.00995991000000	0.00000000000000	0.03729970000000	144.84000000000000	965.17999999999995	60.90620000000000	-0.36908500000000	0.00000000000000	-0.11002600000000	0.00000000000000	1.60608000000000	0.00000000000000	0.00000000000000	0.46278800000000	0.00000000000000	-16.73600000000000	-15.09200000000000	0.00000000000000	0.00000000000000	-0.35000000000000	0.00000000000000	22.19700000000000	-4.33860000000000	0.00000000000000	0.00000000000000	-0.35000000000000	0.00000000000000	
2.52452000000000	-9.27973000000000	82.68570000000000	17.57160000000000	-0.00553708000000	0.00000000000000	0.04309530000000	152.09700000000001	975.67399999999998	59.54360000000000	-0.38146600000000	0.00000000000000	-0.11099400000000	0.00000000000000	1.75861000000000	0.00000000000000	0.00000000000000	-0.07486130000000	0.00000000000000	-17.58700000000000	-15.92400000000000	0.00000000000000	0.00000000000000	-0.35000000000000	0.00000000000000	23.78600000000000	-4.89190000000000	0.00000000000000	0.00000000000000	-0.35000000000000	0.00000000000000	
2.52952000000000	-15.82090000000000	120.65500000000000	20.31440000000000	-0.00021141600000	0.00000000000000	0.04896300000000	158.49500000000000	980.89099999999996	57.65700000000000	-0.39348900000000	0.00000000000000	-0.11185500000000	0.00000000000000	1.85969000000000	0.00000000000000	0.00000000000000	-0.58690500000000	0.00000000000000	-18.35700000000000	-16.69100000000000	0.00000000000000	0.00000000000000	-0.35000000000000	0.00000000000000	25.27100000000000	-5.42940000000000	0.00000000000000	0.00000000000000	-0.35000000000000	0.00000000000000	
2.53452000000000	-23.31490000000000	162.53200000000001	22.80710000000000	0.00597328000000	0.00000000000000	0.05483180000000	163.90400000000000	980.61900000000003	55.26940000000000	-0.40491000000000	0.00000000000000	-0.11256000000000	0.00000000000000	1.89873000000000	0.00000000000000	0.00000000000000	-1.06290000000000	0.00000000000000	-19.03600000000000	-17.38200000000000	0.00000000000000	0.00000000000000	-0.35000000000000	0.00000000000000	26.61100000000000	-5.93280000000000	0.00000000000000	0.00000000000000	-0.35000000000000	0.00000000000000	
2.53952000000000	-31.69260000000000	207.97300000000001	24.96100000000000	0.01294160000000	0.00000000000000	0.06063210000000	168.21100000000001	974.73000000000002	52.41390000000000	-0.41547500000000	0.00000000000000	-0.11306100000000	0.00000000000000	1.86583000000000	0.00000000000000	0.00000000000000	-1.49422000000000	0.00000000000000	-19.61700000000000	-17.99100000000000	0.00000000000000	0.00000000000000	-0.35000000000000	0.00000000000000	27.77000000000000	-6.38370000000000	0.00000000000000	0.00000000000000	-0.35000000000000	0.00000000000000	
2.54452000000000	-40.85900000000000	256.54599999999999	26.69110000000000	0.02058750000000	0.00000000000000	0.06629720000000	171.32100000000000	963.18499999999995	49.13250000000000	-0.42492500000000	0.00000000000000	-0.11331000000000	0.00000000000000	1.75207000000000	0.00000000000000	0.00000000000000	-1.87418000000000	0.00000000000000	-20.10200000000000	-18.51500000000000	0.00000000000000	0.00000000000000	-0.35000000000000	0.00000000000000	28.71800000000000	-6.76530000000000	0.00000000000000	0.00000000000000	-0.35000000000000	0.00000000000000	
2.54952000000000	-50.69420000000000	307.73599999999999	27.91890000000000	0.02877680000000	0.00000000000000	0.07176500000000	173.16200000000001	946.03200000000004	45.47600000000000	-0.43300500000000	0.00000000000000	-0.11326100000000	0.00000000000000	1.54991000000000	0.00000000000000	0.00000000000000	-2.19799000000000	0.00000000000000	-20.49500000000000	-18.95800000000000	0.00000000000000	0.00000000000000	-0.35000000000000	0.00000000000000	29.43400000000000	-7.06360000000000	0.00000000000000	0.00000000000000	-0.35000000000000	0.00000000000000	
2.55452000000000	-61.05580000000000	360.95299999999997	28.57450000000000	0.03735050000000	0.00000000000000	0.07697930000000	173.68400000000000	923.40999999999997	41.50200000000000	-0.43947100000000	0.00000000000000	-0.11287100000000	0.00000000000000	1.25344000000000	0.00000000000000	0.00000000000000	-2.46277000000000	0.00000000000000	-20.80200000000000	-19.32300000000000	0.00000000000000	0.00000000000000	-0.35000000000000	0.00000000000000	29.90100000000000	-7.26750000000000	0.00000000000000	0.00000000000000	-0.35000000000000	0.00000000000000	
2.55952000000000	-71.78220000000000	415.54500000000002	28.59910000000000	0.04612880000000	0.00000000000000	0.08189090000000	172.86300000000000	895.54600000000005	37.27450000000000	-0.44409100000000	0.00000000000000	-0.11210100000000	0.00000000000000	0.85867500000000	0.00000000000000	0.00000000000000	-2.66742000000000	0.00000000000000	-21.02200000000000	-19.60400000000000	0.00000000000000	0.00000000000000	-0.35000000000000	0.00000000000000	30.10600000000000	-7.36790000000000	0.00000000000000	0.00000000000000	-0.35000000000000	0.00000000000000	
2.56452000000000	-82.69560000000000	470.80799999999999	27.94730000000000	0.05491580000000	0.00000000000000	0.08645840000000	170.69900000000001	862.74900000000002	32.86210000000000	-0.44665900000000	0.00000000000000	-0.11091700000000	0.00000000000000	0.36381300000000	0.00000000000000	0.00000000000000	-2.81252000000000	0.00000000000000	-21.16300000000000	-19.80900000000000	0.00000000000000	0.00000000000000	-0.35000000000000	0.00000000000000	30.05300000000000	-7.36280000000000	0.00000000000000	0.00000000000000	-0.35000000000000	0.00000000000000	
2.56952000000000	-93.60690000000000	526.00300000000004	26.58830000000000	0.06350580000000	0.00000000000000	0.09064880000000	167.21500000000000	825.40800000000002	28.33660000000000	-0.44699600000000	0.00000000000000	-0.10929100000000	0.00000000000000	-0.23062200000000	0.00000000000000	0.00000000000000	-2.90013000000000	0.00000000000000	-21.23400000000000	-19.94200000000000	0.00000000000000	0.00000000000000	-0.35000000000000	0.00000000000000	29.75200000000000	-7.25470000000000	0.00000000000000	0.00000000000000	-0.35000000000000	0.00000000000000	
2.57452000000000	-104.31999999999999	580.36800000000005	24.50770000000000	0.07168850000000	0.00000000000000	0.09443850000000	162.46199999999999	783.98099999999999	23.77100000000000	-0.44495600000000	0.00000000000000	-0.10720300000000	0.00000000000000	-0.92163400000000	0.00000000000000	0.00000000000000	-2.93356000000000	0.00000000000000	-21.24100000000000	-20.00700000000000	0.00000000000000	0.00000000000000	-0.35000000000000	0.00000000000000	29.22500000000000	-7.05060000000000	0.00000000000000	0.00000000000000	-0.35000000000000	0.00000000000000	
2.57952000000000	-114.63400000000000	633.13800000000003	21.70820000000000	0.07925510000000	0.00000000000000	0.09781240000000	156.50999999999999	738.98800000000006	19.23830000000000	-0.44043400000000	0.00000000000000	-0.10464000000000	0.00000000000000	-1.70371000000000	0.00000000000000	0.00000000000000	-2.91721000000000	0.00000000000000	-21.19400000000000	-20.00900000000000	0.00000000000000	0.00000000000000	-0.35000000000000	0.00000000000000	28.50200000000000	-6.76220000000000	0.00000000000000	0.00000000000000	-0.35000000000000	0.00000000000000	
